<svg xmlns="http://www.w3.org/2000/svg" width="501" height="200" viewBox="0 0 501 200" fill="none">
    <g clip-path="url(#yglsx2a6ma)" fill="#fff" fill-opacity=".1">
        <path d="M501.109 199.96v-14.403h-14.495v14.403h14.495zM501.109 183.009v-14.284h-14.495v14.284h14.495zM501.109 166.175V151.78h-14.495v14.395h14.495zM501.109 149.271v-14.348h-14.495v14.348h14.495zM484.352 199.96v-14.403h-14.495v14.403h14.495zM484.352 183.009v-14.284h-14.495v14.284h14.495zM484.352 166.175V151.78h-14.495v14.395h14.495zM484.352 149.271v-14.348h-14.495v14.348h14.495zM484.352 115.504v-14.38h-14.495v14.38h14.495zM467.674 199.96v-14.403H453.21v14.403h14.464zM467.674 183.009v-14.284H453.21v14.284h14.464zM467.674 149.271v-14.348H453.21v14.348h14.464zM467.674 132.407v-14.395H453.21v14.395h14.464zM467.674 115.504v-14.38H453.21v14.38h14.464zM450.949 183.009v-14.284h-14.473v14.284h14.473zM450.949 166.175V151.78h-14.473v14.395h14.473zM450.949 149.271v-14.348h-14.473v14.348h14.473zM450.949 132.407v-14.395h-14.473v14.395h14.473zM450.949 98.634V84.207h-14.473v14.427h14.473zM434.262 183.009v-14.284h-14.489v14.284h14.489zM434.262 166.175V151.78h-14.489v14.395h14.489zM434.262 149.271v-14.348h-14.489v14.348h14.489zM434.262 132.407v-14.395h-14.489v14.395h14.489zM434.262 115.504v-14.38h-14.489v14.38h14.489zM434.262 98.634V84.207h-14.489v14.427h14.489zM434.262 81.753v-14.38h-14.489v14.38h14.489zM434.262 47.922V33.551h-14.489v14.371h14.489zM417.558 149.271v-14.348h-14.485v14.348h14.485zM417.558 132.407v-14.395h-14.485v14.395h14.485zM417.558 98.634V84.207h-14.485v14.427h14.485zM417.558 64.85V50.477h-14.485v14.371h14.485zM400.864 166.175V151.78h-14.492v14.395h14.492zM400.864 149.271v-14.348h-14.492v14.348h14.492zM400.864 132.407v-14.395h-14.492v14.395h14.492zM400.864 115.504v-14.38h-14.492v14.38h14.492zM400.864 98.634V84.207h-14.492v14.427h14.492zM400.864 64.85V50.477h-14.492v14.371h14.492zM400.864-19.573v-14.434h-14.492v14.434h14.492zM384.136 149.271v-14.348h-14.485v14.348h14.485zM384.136 115.504v-14.38h-14.485v14.38h14.485zM384.136 81.753v-14.38h-14.485v14.38h14.485zM384.136 47.922V33.551h-14.485v14.371h14.485zM367.442 98.634V84.207h-14.507v14.427h14.507zM367.442 64.85V50.477h-14.507v14.371h14.507zM350.743 81.753v-14.38h-14.486v14.38h14.486zM350.743 47.922V33.551h-14.486v14.371h14.486zM350.743 14.2V-.178h-14.486v14.38h14.486zM334.019 98.634V84.207h-14.507v14.427h14.507zM317.318 14.2V-.178H302.81v14.38h14.508zM317.318-36.444v-14.403H302.81v14.403h14.508zM300.626 14.2V-.178h-14.518v14.38h14.518zM283.904 14.2V-.178h-14.503v14.38h14.503zM267.208-2.726v-14.356h-14.51v14.356h14.51zM252.657-1.13h-14.518v14.38h14.518V-1.13zM235.571-1.13h-14.399v14.38h14.399V-1.13zM218.602-1.13h-14.511v14.38h14.511V-1.13zM201.562-1.13h-14.463v14.38h14.463V-1.13zM252.657 15.494h-14.518v14.38h14.518v-14.38zM235.571 15.494h-14.399v14.38h14.399v-14.38zM218.602 15.494h-14.511v14.38h14.511v-14.38zM201.562 15.494h-14.463v14.38h14.463v-14.38zM167.524 15.494h-14.495v14.38h14.495v-14.38zM252.657 32.04h-14.518v14.349h14.518v-14.35zM235.571 32.04h-14.399v14.349h14.399v-14.35zM201.562 32.04h-14.463v14.349h14.463v-14.35zM184.563 32.04h-14.51v14.349h14.51v-14.35zM167.524 32.04h-14.495v14.349h14.495v-14.35zM235.571 48.632h-14.399V62.99h14.399V48.632zM218.602 48.632h-14.511V62.99h14.511V48.632zM201.562 48.632h-14.463V62.99h14.463V48.632zM184.563 48.632h-14.51V62.99h14.51V48.632zM150.519 48.632h-14.542V62.99h14.542V48.632zM235.571 65.186h-14.399V79.56h14.399V65.186zM218.602 65.186h-14.511V79.56h14.511V65.186zM201.562 65.186h-14.463V79.56h14.463V65.186zM184.563 65.186h-14.51V79.56h14.51V65.186zM167.524 65.186h-14.495V79.56h14.495V65.186zM150.519 65.186h-14.542V79.56h14.542V65.186zM133.503 65.186h-14.495V79.56h14.495V65.186zM99.401 65.186H84.914V79.56h14.487V65.186zM201.562 81.757h-14.463v14.37h14.463v-14.37zM184.563 81.757h-14.51v14.37h14.51v-14.37zM150.519 81.757h-14.542v14.37h14.542v-14.37zM116.464 81.757h-14.487v14.37h14.487v-14.37zM218.602 98.318h-14.511v14.377h14.511V98.318zM201.562 98.318h-14.463v14.377h14.463V98.318zM184.563 98.318h-14.51v14.377h14.51V98.318zM167.524 98.318h-14.495v14.377h14.495V98.318zM150.519 98.318h-14.542v14.377h14.542V98.318zM116.464 98.318h-14.487v14.377h14.487V98.318zM31.365 98.318h-14.55v14.377h14.55V98.318zM201.562 114.913h-14.463v14.37h14.463v-14.37zM167.524 114.913h-14.495v14.371l14.495-.001v-14.37zM133.503 114.913h-14.495v14.371h14.495v-14.371zM99.401 114.913H84.914v14.371h14.487v-14.371zM150.519 131.475h-14.542v14.391h14.542v-14.391zM116.464 131.475h-14.487v14.391h14.487v-14.391zM133.503 148.041h-14.495v14.37h14.495v-14.37zM99.401 148.041H84.914v14.37h14.487v-14.37zM65.409 148.041H50.914v14.37H65.41v-14.37zM150.519 164.632h-14.542v14.391h14.542v-14.391zM65.409 181.2H50.914v14.392H65.41V181.2zM14.358 181.2H-.161v14.392h14.519V181.2zM65.409 197.759H50.914v14.403H65.41v-14.403zM65.409 214.348H50.914v14.388H65.41v-14.388zM48.346 230.911h-14.47v14.395h14.47v-14.395z"/>
    </g>
    <defs>
        <clipPath id="yglsx2a6ma">
            <path fill="#fff" d="M0 0h501v200H0z"/>
        </clipPath>
    </defs>
</svg>