<svg xmlns="http://www.w3.org/2000/svg" id="Info" width="14" height="14" viewBox="0 0 14 14">
  <rect id="Rectangle" width="14" height="14" rx="2" fill="#999"/>
  <path id="_" data-name="!" d="M.58.075a.9.9,0,0,0-.31.208A.938.938,0,0,0,.07.6,1.1,1.1,0,0,0,0,1a1.122,1.122,0,0,0,.07.4.928.928,0,0,0,.2.32.95.95,0,0,0,.31.212A1.053,1.053,0,0,0,.993,2,1.037,1.037,0,0,0,1.4,1.927.91.91,0,0,0,1.909,1.4a1.122,1.122,0,0,0,.07-.4,1.1,1.1,0,0,0-.07-.4.938.938,0,0,0-.2-.316A.885.885,0,0,0,1.4.075,1.053,1.053,0,0,0,.993,0,1.07,1.07,0,0,0,.58.075ZM0,3V8H2V3Z" transform="translate(6 3)" fill="#fff"/>
</svg>