<svg xmlns="http://www.w3.org/2000/svg" id="Group_12368" data-name="Group 12368" width="30" height="30" viewBox="0 0 30 30">
  <circle id="Ellipse_846" data-name="Ellipse 846" cx="15" cy="15" r="15" fill="#3e8ccf"/>
  <path id="link_24dp_FILL0_wght400_GRAD0_opsz24" d="M88.1-671H84.5a4.337,4.337,0,0,1-3.184-1.316A4.337,4.337,0,0,1,80-675.5a4.337,4.337,0,0,1,1.316-3.184A4.337,4.337,0,0,1,84.5-680h3.6v1.8H84.5a2.6,2.6,0,0,0-1.913.787A2.6,2.6,0,0,0,81.8-675.5a2.6,2.6,0,0,0,.787,1.913,2.6,2.6,0,0,0,1.913.787h3.6Zm-2.7-3.6v-1.8h7.2v1.8Zm4.5,3.6v-1.8h3.6a2.6,2.6,0,0,0,1.913-.787A2.6,2.6,0,0,0,96.2-675.5a2.6,2.6,0,0,0-.787-1.913A2.6,2.6,0,0,0,93.5-678.2H89.9V-680h3.6a4.337,4.337,0,0,1,3.184,1.316A4.337,4.337,0,0,1,98-675.5a4.337,4.337,0,0,1-1.316,3.184A4.337,4.337,0,0,1,93.5-671Z" transform="translate(-73.829 691)" fill="#fff"/>
</svg>